# xmcd
#
# Track frame offsets: 
#        150
#        16787
#        29145
#        42420
#        54475
#        68852
#        81345
#        95970
#        114467
#
# Disc length: 1818 seconds
#
# Revision: 0
# Processed by: cddbd v1.5.1PL0 Copyright (c) Steve Scherf et al.
# Submitted via: ExactAudioCopy v0.95a5
#
DISCID=7b071809
DTITLE=Dick's Hat Band - Shameless Rhythm and Blues
DYEAR=1997
DGENRE=Modern Electric Blues
TTITLE0=Big Daddy's Got a Brand New Toy
TTITLE1=Was It Something I Said
TTITLE2=Safe Sex
TTITLE3=The Man That Plays the Piano
TTITLE4=Wayne County Tennessee
TTITLE5=I That Don't Make You Happy
TTITLE6=Sick and Tired
TTITLE7=Runaway Blues
TTITLE8=Make You Mine
EXTD=
EXTT0=
EXTT1=
EXTT2=
EXTT3=
EXTT4=
EXTT5=
EXTT6=
EXTT7=
EXTT8=
PLAYORDER=
